Coordinates
version=1
nRows=21
nColumns=33
inDegrees=yes

Units are S.I. units (second, meters, Newtons, ...)
Angles are in degrees.

endheader
time	ground_thorax_rot_x	ground_thorax_rot_y	ground_thorax_rot_z	ground_thorax_tx	ground_thorax_ty	ground_thorax_tz	clav_prot_r	clav_elev_r	scapula_abduction_r	scapula_elevation_r	scapula_upward_rot_r	scapula_winging_r	shoulder_elv_r	plane_of_elev_r	axial_rot_r	elbow_flexion_r	pro_sup_r	wrist_flex_r	wrist_dev_r	clav_prot_l	clav_elev_l	scapula_abduction_l	scapula_elevation_l	scapula_upward_rot_l	scapula_winging_l	shoulder_elv_l	plane_of_elev_l	axial_rot_l	elbow_flexion_l	pro_sup_l	wrist_flex_l	wrist_dev_l
      3.80000000	     -0.94938564	      4.29979043	     13.26427059	     -0.11658718	      1.02799757	      0.01557219	      8.17628640	    -12.57483791	     14.01797395	     -4.87877633	     -0.93057467	     -1.27320871	    -37.10505132	    -74.63381766	     97.97276187	    -81.19836723	   -154.08301492	     33.70559187	    -16.17868739	     11.67396593	     -2.31064469	    -15.91246444	    -20.57769261	    -37.46654580	     -0.04726160	     62.81101846	    -30.20013919	      2.19034569	     70.29227502	     19.45785779	      4.58456274	    -24.99999983
      3.81000000	     -0.83750133	      4.24062503	     13.15143964	     -0.11656688	      1.02787191	      0.01571804	      8.50559685	    -12.40485233	     14.71260859	     -4.84051202	     -0.62986766	     -1.62599377	    -35.08405332	    -74.20337574	     99.48757873	    -81.87555238	   -155.56854310	     30.38860719	    -13.28573072	     11.74176756	     -2.51526988	    -16.01449259	    -20.30383774	    -37.31560255	      0.04300627	     63.00459259	    -29.53747965	      2.86135768	     70.26595267	     18.81859171	      7.68184596	    -24.99999983
      3.82000000	     -0.98540298	      4.27925173	     13.11624946	     -0.11649067	      1.02832033	      0.01572838	      8.63001586	    -12.75910057	     15.13372407	     -5.34751917	     -0.18827591	     -1.63719932	    -34.58695327	    -73.92985055	     99.61641259	    -81.74808879	   -155.71248227	     30.12012011	    -13.09830775	     11.87623385	     -2.64219564	    -16.19892660	    -20.02830643	    -37.00790057	      0.19375859	     63.30681769	    -29.07918739	      2.88635027	     70.16394460	     18.80732859	      7.93867997	    -24.92272262
      3.83000000	     -1.00177429	      4.23185976	     13.08296275	     -0.11637658	      1.02787533	      0.01573307	      8.86743811	    -12.53190112	     15.77306031	     -5.34262147	      0.32158641	     -2.00311723	    -32.89512783	    -73.60172332	    101.30611597	    -82.09570233	   -156.91192970	     27.45678591	    -10.69692998	     11.99043522	     -2.76267937	    -16.38521385	    -19.85205813	    -36.89482158	      0.30637656	     63.55333310	    -28.51075577	      3.43954463	     70.50361942	     18.41060178	     10.58924562	    -23.50214310
      3.84000000	     -1.02062723	      4.15607295	     13.22188743	     -0.11657598	      1.02796938	      0.01573205	      9.27578398	    -12.70913713	     16.38722868	     -5.42987769	      0.16017555	     -2.16114655	    -30.51287180	    -73.22447553	    103.07723467	    -82.13516033	   -157.86804786	     25.95930336	     -9.33976439	     12.10108775	     -3.03119719	    -16.60035754	    -19.59837626	    -36.91760811	      0.42184735	     63.92796080	    -27.97578449	      3.75978537	     70.48215215	     18.20559509	     12.73717280	    -21.96643417
      3.85000000	     -1.12962368	      4.30371221	     13.11793158	     -0.11637165	      1.02823754	      0.01576573	      9.37751724	    -13.01075689	     16.78619266	     -5.90083886	      0.63843246	     -2.18271027	    -29.99067502	    -72.87191565	    103.19637852	    -81.85507548	   -157.98850925	     25.68672011	     -9.20879747	     12.25534387	     -3.20078179	    -16.80596373	    -19.24099813	    -36.52446456	      0.59643337	     64.22395301	    -27.34796992	      3.68071719	     70.09778339	     18.21818626	     12.90715852	    -21.75875183
      3.86000000	     -1.20251055	      4.36012164	     13.08890020	     -0.11621897	      1.02780155	      0.01579672	      9.48802032	    -12.73977881	     17.31299329	     -5.93534783	      1.34369266	     -2.52946133	    -28.35873045	    -72.35383137	    104.98683707	    -81.67262438	   -158.95399594	     23.54566454	     -7.50590672	     12.48555010	     -3.23305056	    -17.17105296	    -19.08469243	    -36.29192273	      0.80480240	     64.33637910	    -26.61087594	      3.95407524	     70.04675993	     17.73478042	     14.84720148	    -20.04514607
      3.87000000	     -1.36439555	      4.49192535	     13.00742076	     -0.11607309	      1.02814213	      0.01577111	      9.69532709	    -13.15292503	     17.81972964	     -6.43945106	      1.66535612	     -2.53384005	    -27.70506495	    -71.87724956	    105.05296729	    -81.19814927	   -159.08251758	     23.24329959	     -7.37424944	     12.66259025	     -3.48176140	    -17.42705217	    -18.66083034	    -35.91629013	      1.00168124	     64.66547822	    -26.03950996	      3.91769053	     69.54159419	     17.72809636	     15.07705126	    -19.76594837
      3.88000000	     -1.44232658	      4.44236824	     13.07971152	     -0.11617507	      1.02766623	      0.01568693	     10.02142374	    -13.02901245	     18.54758691	     -6.46487967	      2.03212736	     -2.89177589	    -25.77342869	    -71.33039102	    106.88375791	    -80.88646244	   -160.08578396	     21.22487775	     -5.74371310	     12.95737084	     -3.57576808	    -17.93044304	    -18.49278773	    -35.78802126	      1.26437805	     64.65875682	    -25.33720831	      4.38719975	     69.36848481	     17.08317706	     17.22174826	    -17.89493600
      3.89000000	     -1.56894575	      4.58691318	     13.19918347	     -0.11613658	      1.02773358	      0.01556913	     10.21368768	    -13.41081661	     19.03005670	     -6.93947122	      2.35820029	     -2.90045239	    -25.35494922	    -71.15757517	    106.93077271	    -80.28255183	   -160.12975788	     21.01695912	     -5.67451730	     13.15087557	     -3.78186457	    -18.22085622	    -18.12720120	    -35.45370046	      1.46600084	     64.93484070	    -24.78704234	      4.07826646	     68.75587439	     17.14882115	     17.33617442	    -17.72913944
      3.90000000	     -1.76654110	      4.68498678	     13.13733927	     -0.11605570	      1.02807280	      0.01560516	     10.38904841	    -13.81153051	     19.54255374	     -7.47743408	      2.80356153	     -2.90088997	    -24.84721846	    -70.67555053	    107.00902743	    -79.61808004	   -160.22682893	     20.66976136	     -5.50942471	     13.34574769	     -4.03205065	    -18.50490285	    -17.68497285	    -35.04516278	      1.67542886	     65.23400110	    -24.19011995	      3.98693352	     67.94980824	     17.19258564	     17.52031237	    -17.44314432
      3.91000000	     -1.81430235	      4.71344745	     12.88460242	     -0.11584577	      1.02721499	      0.01540256	     10.58247315	    -13.41762114	     20.23001513	     -7.39187321	      3.51657773	     -3.37688438	    -22.81268536	    -69.86007249	    108.94692846	    -79.23907309	   -161.30730174	     18.16171620	     -3.34946425	     13.69195473	     -4.02200169	    -19.07137276	    -17.51670746	    -34.72021250	      2.00580843	     64.97085321	    -23.09502260	      4.78478725	     67.61399173	     16.43494209	     19.77941440	    -15.49944240
      3.92000000	     -1.86804311	      4.70642112	     13.10291183	     -0.11636672	      1.02720985	      0.01539680	     11.06023470	    -13.75426742	     20.68701582	     -7.42752201	      2.85779279	     -3.40857394	    -19.88026786	    -69.22892541	    110.89564780	    -78.81264925	   -161.99113511	     16.77145237	     -2.27383768	     14.05719850	     -4.51579895	    -19.72845647	    -17.06175486	    -34.78073586	      2.31863010	     65.18373698	    -22.56569051	      5.05103461	     66.98926067	     15.89644101	     21.30995151	    -14.16398808
      3.93000000	     -1.99405836	      4.87292484	     13.01685870	     -0.11610739	      1.02739501	      0.01529080	     11.12220144	    -14.05946566	     21.03360485	     -7.89667446	      3.34858531	     -3.38581002	    -19.32199698	    -68.83467790	    111.03322199	    -78.02593146	   -162.04910385	     16.46939033	     -2.19264181	     14.20880602	     -4.76266462	    -19.93012565	    -16.60651687	    -34.32757302	      2.48954339	     65.36958821	    -21.77131550	      4.91917251	     65.96723169	     15.99670949	     21.38555729	    -13.91838090
      3.94000000	     -2.17582145	      4.99037898	     12.94447449	     -0.11592104	      1.02752432	      0.01512704	     11.21213574	    -14.34833177	     21.46103507	     -8.37253080	      3.90208297	     -3.39798879	    -18.73637796	    -68.39202488	    111.28615727	    -77.10733065	   -162.13662328	     15.99778405	     -1.95149940	     14.38991620	     -4.97124333	    -20.18609933	    -16.18606318	    -33.87528293	      2.68343616	     65.51076145	    -21.01483112	      4.87007218	     64.95569813	     16.04202239	     21.59537456	    -13.59487227
      3.95000000	     -2.27609796	      5.02308972	     12.92037606	     -0.11566454	      1.02688886	      0.01502405	     11.15911447	    -13.99242999	     21.80303330	     -8.36104058	      4.71124703	     -3.71285575	    -17.32079358	    -67.73273257	    112.98166040	    -76.29553092	   -162.55246396	     14.35235601	     -0.61939019	     14.68745144	     -4.83864491	    -20.63971581	    -16.05227382	    -33.37264279	      2.98240382	     65.04653419	    -19.90096826	      5.36349862	     63.81729358	     15.64008750	     22.90469497	    -12.57334668
      3.96000000	     -2.43687990	      5.16086914	     12.87909644	     -0.11564392	      1.02709431	      0.01487572	     11.38956400	    -14.37805273	     22.31882672	     -8.80825666	      4.98231901	     -3.71320911	    -16.59392000	    -67.18318185	    113.03003848	    -75.33547545	   -162.58317389	     13.96194220	     -0.49235162	     14.90234072	     -5.21545764	    -20.96846410	    -15.49309276	    -32.96093941	      3.20343751	     65.27427362	    -19.26799321	      5.18775360	     62.71577441	     15.72100253	     23.10675391	    -12.26888509
      3.97000000	     -2.46522249	      5.16612290	     12.94320119	     -0.11582745	      1.02643339	      0.01471760	     11.59127587	    -14.10232863	     22.83099274	     -8.67584567	      5.30996040	     -4.07330865	    -14.56908449	    -66.45815333	    114.96255865	    -74.48726580	   -162.69720696	     12.41810097	      0.65823950	     15.32555257	     -5.28780275	    -21.66735440	    -15.23408997	    -32.61154466	      3.60098219	     64.83093854	    -18.27764205	      5.66464992	     61.49536483	     15.26720086	     24.62127138	    -11.26237558
      3.98000000	     -2.65220039	      5.24500129	     12.90977839	     -0.11563915	      1.02677768	      0.01451898	     11.72981476	    -14.48995704	     23.25532688	     -9.16806844	      5.69311249	     -4.02603533	    -13.93299521	    -65.88164021	    115.02431736	    -73.32386260	   -162.67250093	     12.05560393	      0.73263413	     15.48257086	     -5.66728028	    -21.89618713	    -14.68348815	    -32.21026103	      3.75969643	     64.99198152	    -17.64657674	      5.67321454	     60.24346576	     15.38868026	     24.71710845	    -10.97477079
      3.99000000	     -2.74200737	      5.23684780	     12.85379580	     -0.11536143	      1.02656116	      0.01427994	     11.72685405	    -14.35960639	     23.64563112	     -9.32025506	      6.41692886	     -4.23767789	    -12.75771616	    -65.25250615	    116.22983009	    -72.16258492	   -162.51582854	     11.12430787	      1.32686710	     15.72179625	     -5.72202854	    -22.26981648	    -14.40941720	    -31.77140514	      4.00910692	     64.60738235	    -16.57935783	      6.20711133	     58.75432259	     15.25242435	     25.43748173	    -10.41488031
      4.00000000	     -2.92183833	      5.34185915	     12.83481473	     -0.11526298	      1.02675681	      0.01405781	     11.92042825	    -14.69204385	     24.15484080	     -9.75085618	      6.78334232	     -4.25169689	    -12.10759183	    -64.67640614	    116.30208400	    -70.91917947	   -162.45215368	     10.70857495	      1.44485427	     15.92610014	     -6.07841748	    -22.58500605	    -13.87439446	    -31.36102381	      4.20905178	     64.75111619	    -15.93250476	      6.04422637	     57.41369076	     15.38971949	     25.59944844	    -10.12394651
